<svg xmlns="http://www.w3.org/2000/svg" xmlns:xlink="http://www.w3.org/1999/xlink" fill="none" version="1.1" width="54" height="54" viewBox="0 0 200 200"><defs><clipPath id="master_svg0_367_0669"><rect x="0" y="0" width="200" height="200" rx="0"/></clipPath></defs><g><g clip-path="url(#master_svg0_367_0669)"><g><path d="M175,111.2679Q173.192,112.3338,171.318,113.2771Q169.443,114.2204,167.51,115.0369Q165.576,115.8533,163.593,116.5393Q161.61,117.2253,159.585,117.7778Q157.56,118.3302,155.504,118.7467Q153.447,119.1633,151.367,119.442Q149.287,119.7207,147.193,119.8603Q145.099,120,143,120Q141.453,120,139.909,119.9241Q138.364,119.8482,136.825,119.6966Q135.286,119.545,133.756,119.3181Q132.226,119.0912,130.709,118.7895Q129.192,118.4877,127.692,118.112Q126.192,117.7362,124.712,117.2872Q123.232,116.8383,121.776,116.3173Q120.32,115.7962,118.891,115.2044Q117.462,114.6126,116.064,113.9513Q114.666,113.2901,113.302,112.561Q111.938,111.832,110.612,111.0369Q109.285,110.2418,107.9991,109.3826Q106.7131,108.5234,105.4709,107.6021Q104.2287,106.6808,103.0332,105.6997Q101.8377,104.7185,100.6918,103.6799Q99.5458,102.6413,98.4523,101.54769999999999Q97.3587,100.4541,96.3201,99.3082Q95.2815,98.1623,94.3003,96.9668Q93.3192,95.7713,92.3979,94.529Q91.4766,93.2868,90.6174,92.0009Q89.7582,90.715,88.9631,89.3885Q88.168,88.06190000000001,87.439,86.69800000000001Q86.7099,85.334,86.0487,83.936Q85.3874,82.53790000000001,84.7956,81.10900000000001Q84.2037,79.6802,83.6827,78.22409999999999Q83.1617,76.7679,82.7128,75.28790000000001Q82.2638,73.80799999999999,81.888,72.3077Q81.5122,70.8075,81.2105,69.2907Q80.9088,67.7738,80.6819,66.244Q80.4549,64.7142,80.3034,63.1751Q80.1518,61.635999999999996,80.0759,60.091300000000004Q80,58.5466,80,57Q80,53.2091,80.4546,49.44549Q80.9092,45.68191,81.8118,42L8,42L8,133L175,133L175,111.2679Z" fill-rule="evenodd" fill="#D8D8D8" fill-opacity="1"/></g><g><path d="M54.1667,200.00033206176758C51.8687,199.99533206176758,50.0081,198.13133206176758,50.0081,195.83333206176758C50.0081,193.53533206176758,51.8687,191.67133206176757,54.1667,191.66633206176758L64.5667,191.66633206176758C69.9685,184.31633206176758,73.4125,175.71333206176757,74.575,166.66633206176758L12.5,166.66633206176758C5.60833,166.66633206176758,0,161.05833206176757,0,154.16633206176758L0,45.83333206176758C0,38.94166206176758,5.60833,33.33333206176758,12.5,33.33333206176758L79.1667,33.33333206176758C81.4678,33.33333206176758,83.3333,35.198812061767576,83.3333,37.500002061767574C83.3333,39.80118206176758,81.4678,41.66666206176758,79.1667,41.66666206176758L12.5,41.66666206176758C10.1988,41.66666206176758,8.33333,43.53213206176758,8.33333,45.83333206176758L8.33333,133.33333206176758L175,133.33333206176758L175,112.50003206176758C175,110.19883206176758,176.865,108.33333206176758,179.167,108.33333206176758C181.468,108.33333206176758,183.333,110.19883206176758,183.333,112.50003206176758L183.333,154.16633206176758C183.333,161.05833206176757,177.725,166.66633206176758,170.833,166.66633206176758L108.758,166.66633206176758C109.922,175.71333206176757,113.366,184.31633206176758,118.767,191.66633206176758L129.167,191.66633206176758C131.468,191.66633206176758,133.333,193.5323320617676,133.333,195.83333206176758C133.333,198.13433206176757,131.468,200.00033206176758,129.167,200.00033206176758L54.1667,200.00033206176758ZM108.758,191.66633206176758C104.208,184.02833206176757,101.347,175.50333206176757,100.367,166.66633206176758L82.9667,166.66633206176758C81.9826,175.5023320617676,79.1215,184.0263320617676,74.575,191.66633206176758L108.758,191.66633206176758ZM8.33333,154.16633206176758C8.33333,156.46833206176757,10.1988,158.33333206176758,12.5,158.33333206176758L170.833,158.33333206176758C173.135,158.33333206176758,175,156.46833206176757,175,154.16633206176758L175,141.66633206176758L8.33333,141.66633206176758L8.33333,154.16633206176758Z" fill="#515A6E" fill-opacity="1"/></g></g><g><path d="M144.75,72.1071C149.74880000000002,72.1071,154.5857,72.3347,159.1757,72.7435C156.80349999999999,93.7264,150.5666,108.75,144.75,108.75C138.9373,108.75,132.7003,93.7264,130.3204,72.7474C135.1183,72.3183,139.933,72.1047,144.75,72.1071ZM122.61,73.6384C124.1606,87.7246,127.4584,99.6046,132.0716,107.253C117.2692,103.665,104.6647,94.0045,97.35345,80.6429C102.6416,77.9044,110.79939999999999,75.4821,120.6814,73.9238L122.61,73.6384ZM166.89,73.6384C177.63979999999998,75.1735,186.51510000000002,77.7269,192.147,80.6429C184.836,94.0074,172.2295,103.67,157.4246,107.257C161.8063,99.9981,165,88.9281,166.6431,75.7791L166.8938,73.6345L166.89,73.6384ZM94.19831,35.7343C101.0602,39.36,110.6914,42.0715,121.9504,43.6183C121.4935,51.0298,121.4935,58.4624,121.9504,65.874C110.6914,67.4207,101.0602,70.1284,94.19831,73.7579C91.91248,67.6816,90.74425867,61.242,90.7500235421,54.75C90.7500235421,48.3008,91.88017,42.1178,93.95145,36.3861L94.19445,35.7381L94.19831,35.7343ZM195.313,35.7343C197.595,41.814,198.76,48.2561,198.75,54.75C198.75799999999998,61.2428,197.59199999999998,67.6836,195.309,73.7618C188.4437,70.1361,178.8124,67.4245,167.5534,65.8778C168.0103,58.4663,168.0103,51.0336,167.5534,43.6221C178.5848,42.1062,188.058,39.4757,194.893,35.9541L195.309,35.7381L195.313,35.7343ZM159.8623,44.4707C160.29219999999998,51.3142,160.29219999999998,58.178,159.8623,65.0215C154.8361,64.5967,149.79410000000001,64.3869,144.75,64.3928C139.7072,64.3872,134.66649999999998,64.59700000000001,129.64159999999998,65.0215C129.2101,58.1793,129.2101,51.3167,129.64159999999998,44.4745C134.6664,44.9006,139.7071,45.1116,144.75,45.1071C148.87709999999998,45.1071,152.91559999999998,44.9721,156.81900000000002,44.7098L159.85840000000002,44.4784L159.8623,44.4707ZM144.75,0.75L145.1203,0.7692857C150.8288,1.386428,156.84980000000002,16.217100000000002,159.17950000000002,36.7525C149.5789,37.6096,139.921,37.6096,130.3204,36.7525C132.7003,15.7774,138.9373,0.75,144.75,0.75ZM132.0716,2.24657C127.4584,9.89528,124.1606,21.7753,122.6061,35.8615C111.86019999999999,34.3264,102.9849,31.773,97.35345,28.857C104.38589999999999,16.0056,116.3282,6.5545,130.45159999999998,2.66315L132.0716,2.24657ZM157.4246,2.24657C172.2284,5.83351,184.83440000000002,15.4946,192.147,28.857C186.51510000000002,31.773,177.63979999999998,34.3264,166.8938,35.8654C165.3895,22.2188,162.24599999999998,10.64356,157.8604,2.97943L157.4246,2.24657Z" fill="#515A6E" fill-opacity="1"/></g></g></svg>
