<svg xmlns="http://www.w3.org/2000/svg" xmlns:xlink="http://www.w3.org/1999/xlink" fill="none" version="1.1" width="54" height="54" viewBox="0 0 200 200"><defs><clipPath id="master_svg0_367_0568"><rect x="0" y="0" width="200" height="200" rx="0"/></clipPath></defs><g><g clip-path="url(#master_svg0_367_0568)"><g><ellipse cx="146" cy="54.000003814697266" rx="54" ry="54.000003814697266" fill="#515A6E" fill-opacity="1"/></g><g><path d="M145.83334234619142,83.33333542480469C143.5321423461914,83.33333542480469,141.6666423461914,81.46783542480469,141.6666423461914,79.1666354248047L141.6666423461914,39.22503542480469L130.0333223461914,50.858335424804686C128.4068023461914,52.489935424804685,125.76522234619141,52.492935424804685,124.13500234619141,50.86503542480469C122.5047833461914,49.23703542480469,122.5040283461914,46.59553542480469,124.1333223461914,44.966635424804686L142.8833423461914,26.216665424804688C144.5151423461914,24.593692424804686,147.1514423461914,24.593692424804686,148.7833423461914,26.216665424804688L167.5333423461914,44.966635424804686C169.16564234619142,46.59533542480469,169.1670423461914,49.239335424804686,167.5365423461914,50.86983542480469C165.9060423461914,52.50033542480469,163.2620423461914,52.498935424804685,161.6333423461914,50.866635424804684L150.0000423461914,39.22503542480469L150.0000423461914,79.1666354248047C150.0000423461914,81.46783542480469,148.1345423461914,83.33333542480469,145.83334234619142,83.33333542480469Z" fill="#FFFFFF" fill-opacity="1"/></g><g><path d="M175,111.2679Q173.192,112.3338,171.318,113.2771Q169.443,114.2204,167.51,115.0369Q165.576,115.8533,163.593,116.5393Q161.61,117.2253,159.585,117.7778Q157.56,118.3302,155.504,118.7467Q153.447,119.1633,151.367,119.442Q149.287,119.7207,147.193,119.8603Q145.099,120,143,120Q141.453,120,139.909,119.9241Q138.364,119.8482,136.825,119.6966Q135.286,119.545,133.756,119.3181Q132.226,119.0912,130.709,118.7895Q129.192,118.4877,127.692,118.112Q126.192,117.7362,124.712,117.2872Q123.232,116.8383,121.776,116.3173Q120.32,115.7962,118.891,115.2044Q117.462,114.6126,116.064,113.9513Q114.666,113.2901,113.302,112.561Q111.938,111.832,110.612,111.0369Q109.285,110.2418,107.9991,109.3826Q106.7131,108.5234,105.4709,107.6021Q104.2287,106.6808,103.0332,105.6997Q101.8377,104.7185,100.6918,103.6799Q99.5458,102.6413,98.4523,101.54769999999999Q97.3587,100.4541,96.3201,99.3082Q95.2815,98.1623,94.3003,96.9668Q93.3192,95.7713,92.3979,94.529Q91.4766,93.2868,90.6174,92.0009Q89.7582,90.715,88.9631,89.3885Q88.168,88.06190000000001,87.439,86.69800000000001Q86.7099,85.334,86.0487,83.936Q85.3874,82.53790000000001,84.7956,81.10900000000001Q84.2037,79.6802,83.6827,78.22409999999999Q83.1617,76.7679,82.7128,75.28790000000001Q82.2638,73.80799999999999,81.888,72.3077Q81.5122,70.8075,81.2105,69.2907Q80.9088,67.7738,80.6819,66.244Q80.4549,64.7142,80.3034,63.1751Q80.1518,61.635999999999996,80.0759,60.091300000000004Q80,58.5466,80,57Q80,53.2091,80.4546,49.44549Q80.9092,45.68191,81.8118,42L8,42L8,133L175,133L175,111.2679Z" fill-rule="evenodd" fill="#D8D8D8" fill-opacity="1"/></g><g><path d="M54.1667,200.00033206176758C51.8687,199.99533206176758,50.0081,198.13133206176758,50.0081,195.83333206176758C50.0081,193.53533206176758,51.8687,191.67133206176757,54.1667,191.66633206176758L64.5667,191.66633206176758C69.9685,184.31633206176758,73.4125,175.71333206176757,74.575,166.66633206176758L12.5,166.66633206176758C5.60833,166.66633206176758,0,161.05833206176757,0,154.16633206176758L0,45.83333206176758C0,38.94166206176758,5.60833,33.33333206176758,12.5,33.33333206176758L79.1667,33.33333206176758C81.4678,33.33333206176758,83.3333,35.198812061767576,83.3333,37.500002061767574C83.3333,39.80118206176758,81.4678,41.66666206176758,79.1667,41.66666206176758L12.5,41.66666206176758C10.1988,41.66666206176758,8.33333,43.53213206176758,8.33333,45.83333206176758L8.33333,133.33333206176758L175,133.33333206176758L175,112.50003206176758C175,110.19883206176758,176.865,108.33333206176758,179.167,108.33333206176758C181.468,108.33333206176758,183.333,110.19883206176758,183.333,112.50003206176758L183.333,154.16633206176758C183.333,161.05833206176757,177.725,166.66633206176758,170.833,166.66633206176758L108.758,166.66633206176758C109.922,175.71333206176757,113.366,184.31633206176758,118.767,191.66633206176758L129.167,191.66633206176758C131.468,191.66633206176758,133.333,193.5323320617676,133.333,195.83333206176758C133.333,198.13433206176757,131.468,200.00033206176758,129.167,200.00033206176758L54.1667,200.00033206176758ZM108.758,191.66633206176758C104.208,184.02833206176757,101.347,175.50333206176757,100.367,166.66633206176758L82.9667,166.66633206176758C81.9826,175.5023320617676,79.1215,184.0263320617676,74.575,191.66633206176758L108.758,191.66633206176758ZM8.33333,154.16633206176758C8.33333,156.46833206176757,10.1988,158.33333206176758,12.5,158.33333206176758L170.833,158.33333206176758C173.135,158.33333206176758,175,156.46833206176757,175,154.16633206176758L175,141.66633206176758L8.33333,141.66633206176758L8.33333,154.16633206176758Z" fill="#515A6E" fill-opacity="1"/></g></g></g></svg>
